<?xml version="1.0" encoding="UTF-8" standalone="no"?>
<!DOCTYPE svg PUBLIC "-//W3C//DTD SVG 1.1//EN" "http://www.w3.org/Graphics/SVG/1.1/DTD/svg11.dtd">
<svg version="1.1" xmlns="http://www.w3.org/2000/svg" xmlns:xlink="http://www.w3.org/1999/xlink" preserveAspectRatio="xMidYMid meet" viewBox="-31.125 195.875 15.061893203883457 14.800970873786383" width="25.6" height="25"><defs><path d="M-19.06 202.28C-19.06 205.26 -21.54 207.68 -24.59 207.68C-27.65 207.68 -30.12 205.26 -30.12 202.28C-30.12 199.29 -27.65 196.88 -24.59 196.88C-21.54 196.88 -19.06 199.29 -19.06 202.28Z" id="ch1MbWSwb"></path><path d="M-25.41 200.15C-25.41 200.43 -25.18 200.66 -24.88 200.66C-24.88 200.66 -24.88 200.66 -24.88 200.66C-24.59 200.66 -24.35 200.43 -24.35 200.15C-24.35 199.87 -24.59 199.64 -24.88 199.64C-24.88 199.64 -24.88 199.64 -24.88 199.64C-25.18 199.64 -25.41 199.87 -25.41 200.15ZM-24.49 204.33L-24.49 201.29L-25.81 201.29L-25.81 202.05L-25.28 202.05L-25.28 204.33L-26.07 204.33L-26.07 205.09L-23.7 205.09L-23.7 204.33L-24.49 204.33Z" id="c1HzkrxvQb"></path></defs><g><g><use xlink:href="#ch1MbWSwb" opacity="1" fill="#222222" fill-opacity="0"></use><g><use xlink:href="#ch1MbWSwb" opacity="1" fill-opacity="0" stroke="#222222" stroke-width="1" stroke-opacity="1"></use></g><g><filter id="shadow9572843" x="-39.12" y="187.88" width="30.06" height="29.8" filterUnits="userSpaceOnUse" primitiveUnits="userSpaceOnUse"><feFlood></feFlood><feComposite in2="SourceAlpha" operator="out"></feComposite><feGaussianBlur stdDeviation="1"></feGaussianBlur><feOffset dx="1" dy="1" result="afterOffset"></feOffset><feFlood flood-color="#ffffff" flood-opacity="0.8"></feFlood><feComposite in2="afterOffset" operator="in"></feComposite><feMorphology operator="dilate" radius="1"></feMorphology><feComposite in2="SourceAlpha" operator="in"></feComposite></filter><path d="M-19.06 202.28C-19.06 205.26 -21.54 207.68 -24.59 207.68C-27.65 207.68 -30.12 205.26 -30.12 202.28C-30.12 199.29 -27.65 196.88 -24.59 196.88C-21.54 196.88 -19.06 199.29 -19.06 202.28Z" id="h6upAVIz0" fill="white" fill-opacity="1" filter="url(#shadow9572843)"></path></g></g><g><g><use xlink:href="#c1HzkrxvQb" opacity="0" fill-opacity="0" stroke="#000000" stroke-width="4" stroke-opacity="0"></use></g><g><filter id="shadow16456679" x="-35.07" y="190.64" width="21.37" height="24.45" filterUnits="userSpaceOnUse" primitiveUnits="userSpaceOnUse"><feFlood></feFlood><feComposite in2="SourceAlpha" operator="out"></feComposite><feGaussianBlur stdDeviation="1"></feGaussianBlur><feOffset dx="1" dy="1" result="afterOffset"></feOffset><feFlood flood-color="#000000" flood-opacity="1"></feFlood><feComposite in2="afterOffset" operator="in"></feComposite><feMorphology operator="dilate" radius="1"></feMorphology><feComposite in2="SourceAlpha" operator="in"></feComposite></filter><path d="M-25.41 200.15C-25.41 200.43 -25.18 200.66 -24.88 200.66C-24.88 200.66 -24.88 200.66 -24.88 200.66C-24.59 200.66 -24.35 200.43 -24.35 200.15C-24.35 199.87 -24.59 199.64 -24.88 199.64C-24.88 199.64 -24.88 199.64 -24.88 199.64C-25.18 199.64 -25.41 199.87 -25.41 200.15ZM-24.49 204.33L-24.49 201.29L-25.81 201.29L-25.81 202.05L-25.28 202.05L-25.28 204.33L-26.07 204.33L-26.07 205.09L-23.7 205.09L-23.7 204.33L-24.49 204.33Z" id="c1Chqgjd12" fill="white" fill-opacity="1" filter="url(#shadow16456679)"></path></g></g></g></svg>