<?xml version="1.0" encoding="UTF-8" standalone="no"?>
<!DOCTYPE svg PUBLIC "-//W3C//DTD SVG 1.1//EN" "http://www.w3.org/Graphics/SVG/1.1/DTD/svg11.dtd">
<svg version="1.1" xmlns="http://www.w3.org/2000/svg" xmlns:xlink="http://www.w3.org/1999/xlink" preserveAspectRatio="xMidYMid meet" viewBox="421.8750000000002 245.79333333333346 64 64.03000000000009" width="60" height="60.03"><defs><path d="M482.88 276.81C482.88 293.37 469.43 306.82 452.88 306.82C436.32 306.82 422.88 293.37 422.88 276.81C422.88 260.24 436.32 246.79 452.88 246.79C469.43 246.79 482.88 260.24 482.88 276.81Z" id="g27J0QQzIm"></path><path d="M468.82 267.12C467.46 268.47 460.65 275.24 448.38 287.41C443.34 282.4 440.53 279.62 439.97 279.06C439.62 278.72 439.12 278.59 438.68 278.72C438.21 278.84 437.84 279.18 437.71 279.65C437.58 280.12 437.74 280.62 438.09 280.96C439.02 281.89 446.51 289.32 447.44 290.25C447.94 290.75 448.79 290.75 449.33 290.25C451.46 288.12 468.57 271.11 470.7 268.99C471.11 268.61 471.24 268.02 471.02 267.52C470.8 267.02 470.3 266.71 469.73 266.71C469.39 266.74 469.07 266.87 468.82 267.12Z" id="c323s8Hsiv"></path><mask id="maskcu3Ycc41T" x="435.67" y="264.71" width="37.46" height="27.91" maskUnits="userSpaceOnUse"><rect x="435.67" y="264.71" width="37.46" height="27.91" fill="white"></rect><use xlink:href="#c323s8Hsiv" opacity="1" fill="black"></use></mask></defs><g><g><use xlink:href="#g27J0QQzIm" opacity="1" fill="#90a7a8" fill-opacity="0"></use><g><use xlink:href="#g27J0QQzIm" opacity="1" fill-opacity="0" stroke="#0061af" stroke-width="2" stroke-opacity="1"></use></g></g><g><use xlink:href="#c323s8Hsiv" opacity="1" fill="#0061af" fill-opacity="1"></use><g mask="url(#maskcu3Ycc41T)"><use xlink:href="#c323s8Hsiv" opacity="1" fill-opacity="0" stroke="#000000" stroke-width="2" stroke-opacity="0"></use></g></g></g></svg>